<svg width="12" height="12" viewBox="0 0 12 12" fill="none" xmlns="http://www.w3.org/2000/svg">
<path d="M8.00969 0.96875C8.6144 0.96875 9.10462 1.45896 9.10462 2.06368L1.44014 2.06367L1.44014 8.18238C0.83543 8.18238 0.345215 7.69216 0.345215 7.08745V2.06367C0.345215 1.45896 0.83543 0.96875 1.44014 0.96875H8.00969Z" fill="white"/>
<path d="M6.91477 11.918L5.45487 10.3722H3.62999C3.02528 10.3722 2.53507 9.88201 2.53507 9.2773V4.25353C2.53507 3.64882 3.02528 3.1586 3.62999 3.1586H10.1995C10.8043 3.1586 11.2945 3.64882 11.2945 4.25353V9.2773C11.2945 9.88202 10.8043 10.3722 10.1995 10.3722H8.37467L6.91477 11.918ZM7.90271 9.2773L10.1995 9.2773V4.25353L3.62999 4.25353V9.2773H5.92683L6.91477 10.3234L7.90271 9.2773Z" fill="white"/>
</svg>
