<svg width="42" height="41" viewBox="0 0 42 41" fill="none" xmlns="http://www.w3.org/2000/svg">
<path d="M29.9413 30.035L29.9507 23.0572C29.9507 19.6407 29.2416 17.0156 25.3792 17.0156C23.5227 17.0156 22.2819 18.0676 21.7688 19.0713H21.7128V17.3245H18.0557V30.0253H21.8621V23.7425C21.8621 22.0825 22.1699 20.4804 24.1478 20.4804C26.0976 20.4804 26.1349 22.372 26.1349 23.8486V30.035H29.9413Z" fill="#13A6BA"/>
<path d="M15.6766 17.3242H11.8608V30.0251H15.6766V17.3242Z" fill="#13A6BA"/>
<path d="M13.764 11.0029C12.5419 11.0029 11.553 12.0259 11.553 13.2902C11.553 14.5545 12.5419 15.5969 13.764 15.5969C14.9862 15.5969 15.9751 14.5545 15.9751 13.2902C15.9751 12.0259 14.9862 11.0029 13.764 11.0029Z" fill="#13A6BA"/>
<rect x="0.833008" y="1.10254" width="40" height="39" stroke="#13A6BA"/>
</svg>
