<svg width="41" height="41" viewBox="0 0 41 41" fill="none" xmlns="http://www.w3.org/2000/svg">
<path d="M29.2618 15.6442L29.273 16.2476C29.273 22.4437 24.7242 29.6029 16.4089 29.6029C13.8607 29.6029 11.4801 28.8255 9.47949 27.4795C9.82596 27.526 10.1836 27.5492 10.5524 27.5492C12.676 27.5492 14.6207 26.7949 16.163 25.5302C14.1848 25.4954 12.5195 24.1378 11.9383 22.2697C12.2177 22.3277 12.4971 22.3509 12.7877 22.3509C13.2013 22.3509 13.6036 22.2929 13.9724 22.1885C11.9048 21.7591 10.3513 19.8678 10.3513 17.5936V17.5472C10.9548 17.8953 11.6477 18.1041 12.3965 18.1273C11.1895 17.2919 10.396 15.8415 10.396 14.2286C10.396 13.37 10.6195 12.5578 11.0107 11.8616C13.2236 14.7044 16.5654 16.5609 20.3207 16.7581C20.2424 16.4216 20.2089 16.0619 20.2089 15.6906C20.2089 13.1031 22.2207 11.0029 24.7242 11.0029C26.0207 11.0029 27.2054 11.5715 28.0324 12.4765C29.0495 12.2677 30.0218 11.8848 30.9048 11.351C30.5695 12.4417 29.8542 13.37 28.9154 13.9502C29.8318 13.8341 30.7036 13.5788 31.5195 13.2075C30.9048 14.1474 30.1336 14.9828 29.2618 15.6442Z" fill="#C8F3F9"/>
<rect x="0.499512" y="1.10254" width="40" height="39" stroke="#C8F3F9"/>
</svg>
