<svg width="42" height="41" viewBox="0 0 42 41" fill="none" xmlns="http://www.w3.org/2000/svg">
<path d="M28.0638 11.0029H14.2691C12.9549 11.0029 11.8865 12.0104 11.8865 13.4677V27.7381C11.8865 29.1955 12.9549 30.2029 14.2691 30.2029H28.0638C29.3781 30.2029 30.4465 29.1955 30.4465 27.7381V13.4677C30.4465 12.0104 29.3781 11.0029 28.0638 11.0029ZM24.575 14.0057C24.575 13.5264 24.9532 13.145 25.407 13.145H27.506C27.9693 13.145 28.338 13.5362 28.338 14.0057V16.0792C28.338 16.5585 27.9598 16.94 27.506 16.94H25.407C24.9437 16.94 24.575 16.5487 24.575 16.0792V14.0057ZM21.1901 16.8324C23.2513 16.8324 24.9153 18.5049 24.9153 20.5687C24.9153 22.6325 23.2418 24.305 21.1901 24.305C19.1289 24.305 17.4649 22.6325 17.4649 20.5687C17.4649 18.5049 19.1289 16.8324 21.1901 16.8324ZM28.3475 27.2393C28.3475 27.6599 28.0166 28.0022 27.61 28.0022H14.6851C14.2786 28.0022 13.9476 27.6599 13.9476 27.2393V19.1211H15.6495C15.4982 19.6395 15.4132 20.197 15.4132 20.7643C15.4132 23.9627 17.9944 26.5449 21.1807 26.5449C24.367 26.5449 26.9482 23.9529 26.9482 20.7643C26.9482 20.197 26.8631 19.6395 26.7118 19.1211H28.3475V27.2393V27.2393Z" fill="#C8F3F9"/>
<rect x="1.1665" y="1.10254" width="40" height="39" stroke="#C8F3F9"/>
</svg>
